<svg xmlns="http://www.w3.org/2000/svg" viewBox="0 0 1200 1600" role="img" aria-label="Margaritas editoriales con luz cálida">
 <defs><linearGradient id="sun" x1="0" y1="0" x2="1" y2="0"><stop offset="0" stop-color="#fff" stop-opacity="0"/><stop offset=".68" stop-color="#e8c88c" stop-opacity=".18"/><stop offset="1" stop-color="#cfa969" stop-opacity=".34"/></linearGradient></defs>
 <rect width="1200" height="1600" fill="url(#sun)"/>
 <g stroke="#49623e" stroke-width="7" fill="none" stroke-linecap="round" opacity=".9">
  <path d="M1080 1620 Q1010 1210 1040 410"/><path d="M975 1620 Q940 1260 920 700"/><path d="M865 1620 Q850 1320 780 910"/><path d="M740 1620 Q750 1370 690 1130"/>
 </g>
 <g id="flower"><g fill="#fffefa" stroke="#e8e5dd" stroke-width="2"><ellipse cy="-70" rx="27" ry="68"/><ellipse cy="70" rx="27" ry="68"/><ellipse cx="-70" rx="68" ry="27"/><ellipse cx="70" rx="68" ry="27"/><ellipse cx="-50" cy="-50" rx="25" ry="65" transform="rotate(-45 -50 -50)"/><ellipse cx="50" cy="-50" rx="25" ry="65" transform="rotate(45 50 -50)"/><ellipse cx="-50" cy="50" rx="25" ry="65" transform="rotate(45 -50 50)"/><ellipse cx="50" cy="50" rx="25" ry="65" transform="rotate(-45 50 50)"/></g><circle r="38" fill="#e9b92e"/><circle r="19" fill="#dca322" opacity=".6"/></g>
 <g transform="translate(1040 395) scale(.78)"><use href="#flower"/></g><g transform="translate(920 690) scale(.92)"><use href="#flower"/></g><g transform="translate(780 900) scale(1.28)"><use href="#flower"/></g><g transform="translate(688 1120) scale(.72)"><use href="#flower"/></g><g transform="translate(1020 1110) scale(.7)" opacity=".72"><use href="#flower"/></g>
</svg>
